<?xml version="1.0" standalone="no"?><!DOCTYPE svg PUBLIC "-//W3C//DTD SVG 1.1//EN" "http://www.w3.org/Graphics/SVG/1.1/DTD/svg11.dtd"><svg t="1648995355157" class="icon" viewBox="0 0 1024 1024" version="1.1" xmlns="http://www.w3.org/2000/svg" p-id="2304" width="128" height="128" xmlns:xlink="http://www.w3.org/1999/xlink"><defs><style type="text/css">@font-face { font-family: feedback-iconfont; src: url("//at.alicdn.com/t/font_1031158_u69w8yhxdu.woff2?t=1630033759944") format("woff2"), url("//at.alicdn.com/t/font_1031158_u69w8yhxdu.woff?t=1630033759944") format("woff"), url("//at.alicdn.com/t/font_1031158_u69w8yhxdu.ttf?t=1630033759944") format("truetype"); }
</style></defs><path d="M378.216 358.2c-15.422 0-25.984-1.438-26.922-1.562-11.672-1.64-19.796-12.422-18.172-24.094 1.64-11.656 12.406-19.782 24.062-18.156 0.624 0.078 40.624 5.266 74.906-7.204 34.92-12.716 66.794-44.624 67.124-44.952 8.282-8.36 21.78-8.438 30.156-0.172 8.376 8.282 8.468 21.766 0.204 30.14-1.562 1.594-38.796 39.03-82.888 55.076-24.346 8.86-49.922 10.924-68.47 10.924zM223.408 201.344c-11.14 0-20.514-8.64-21.264-19.922-0.796-11.75 8.108-21.922 19.858-22.704 1.172-0.078 74.608-5.344 144.794-30.904 70.608-25.688 134.528-70.64 135.168-71.094 9.624-6.796 22.936-4.516 29.734 5.094 6.812 9.61 4.546 22.922-5.062 29.734-2.796 1.968-69.108 48.656-145.246 76.358-76.296 27.782-153.31 33.172-156.544 33.39-0.486 0.032-0.97 0.048-1.438 0.048zM600.336 783.11c-2.656 0-5.376-0.5-7.968-1.562-10.938-4.438-16.218-16.876-11.812-27.81 0.812-1.906 19.468-47.406 55.812-77.904 35.936-30.156 86.996-43.688 89.122-44.25a21.354 21.354 0 0 1 26.062 15.282c2.938 11.376-3.876 23.032-15.312 26-0.376 0.124-43.998 11.75-72.436 35.654-27.842 23.344-43.53 60.842-43.686 61.216a21.374 21.374 0 0 1-19.782 13.374zM669.584 974.138c-4.094 0-8.216-1.156-11.842-3.594-9.812-6.562-12.438-19.812-5.876-29.624 1.812-2.688 44.998-66.686 107.184-118.874 62.062-52.062 135.686-86.186 138.748-87.592 10.718-4.906 23.376-0.218 28.312 10.468 4.938 10.718 0.218 23.374-10.5 28.31-0.688 0.312-71.56 33.188-129.124 81.5-57.624 48.312-98.748 109.342-99.186 109.936-4.092 6.158-10.842 9.47-17.716 9.47z" fill="#967ADC" p-id="2305"></path><path d="M268.562 504.68a21.336 21.336 0 0 1-18.11-10.032c-6.234-9.984-3.218-23.124 6.75-29.374 0.344-0.218 34.468-21.984 52.75-53.672 18.592-32.17 22.5-77.124 22.53-77.576 0.968-11.734 11.25-20.468 23-19.516 11.734 0.968 20.468 11.234 19.532 22.968-0.188 2.218-4.64 54.81-28.11 95.466-23.718 41.076-65.294 67.374-67.044 68.482a21.336 21.336 0 0 1-11.298 3.254zM68.364 469.648a21.284 21.284 0 0 1-15.39-6.56c-8.156-8.5-7.876-22.016 0.624-30.172 0.89-0.86 53.718-52.076 91.06-116.732 37.562-65.076 57.64-140.59 57.842-141.356 3-11.39 14.656-18.204 26.046-15.218 11.39 3 18.202 14.64 15.218 26.046-0.86 3.296-21.656 81.686-62.156 151.856-40.608 70.31-96.138 123.952-98.482 126.202a21.228 21.228 0 0 1-14.762 5.934zM731.02 672.988c-8.968 0-17.344-5.718-20.282-14.75-0.624-1.938-15.56-48.812-7.312-95.53 8.124-46.232 38.532-89.388 39.812-91.202 6.844-9.608 20.156-11.858 29.75-5.03a21.3 21.3 0 0 1 5.032 29.748c-0.218 0.344-26.156 37.282-32.594 73.888-6.344 36.03 5.812 74.624 5.938 74.998 3.562 11.218-2.562 23.25-13.782 26.844a20.756 20.756 0 0 1-6.562 1.034zM906.862 774.86c-10.75 0-20-8.124-21.156-19.06-0.344-3.188-8.406-79.998 5.688-159.934 14.062-79.81 48.532-153.23 49.968-156.308 5.062-10.656 17.782-15.204 28.436-10.156 10.624 5.032 15.188 17.75 10.124 28.406-0.312 0.704-33.466 71.452-46.498 145.432-13.032 73.812-5.376 147.248-5.312 147.998 1.25 11.686-7.188 22.216-18.938 23.498-0.75 0.06-1.532 0.124-2.312 0.124z" fill="#967ADC" p-id="2306"></path><path d="M297.92 673.02c-2.188 0-4.406-0.344-6.594-1.032-11.186-3.656-17.328-15.688-13.718-26.876 0.124-0.376 12.28-38.968 5.922-74.998-5.39-30.592-25.36-63.716-32.594-73.888-6.828-9.61-4.578-22.922 5.016-29.748 9.61-6.828 22.922-4.578 29.75 5.03 1.296 1.812 31.688 44.968 39.842 91.202 8.234 46.716-6.702 93.592-7.342 95.53-2.922 9.06-11.296 14.78-20.282 14.78zM122.082 774.86c-0.766 0-1.546-0.062-2.328-0.124-11.704-1.282-20.172-11.812-18.906-23.498 0.078-0.75 7.718-74.186-5.296-147.998-13.078-74.184-46.202-144.728-46.53-145.432-5.046-10.656-0.5-23.376 10.156-28.406 10.656-5.046 23.376-0.5 28.408 10.156 1.468 3.078 35.92 76.498 49.982 156.308 14.11 79.936 6.046 156.714 5.704 159.934-1.19 10.934-10.44 19.06-21.19 19.06zM760.394 504.68c-3.876 0-7.782-1.046-11.282-3.25-1.75-1.11-43.344-27.406-67.06-68.482-23.466-40.656-27.936-93.248-28.124-95.466-0.938-11.75 7.812-22.032 19.56-22.984 11.75-0.938 22.062 7.812 23 19.562 0 0.422 3.938 45.376 22.498 77.56 18.188 31.454 52.376 53.422 52.75 53.64 9.968 6.232 13 19.404 6.75 29.388a21.3 21.3 0 0 1-18.092 10.032zM960.58 469.648c-5.282 0-10.624-1.968-14.75-5.936-2.344-2.25-57.876-55.89-98.466-126.202-40.5-70.17-61.312-148.558-62.188-151.856-2.968-11.406 3.844-23.062 15.25-26.046 11.376-2.984 23.062 3.828 26.032 15.234 0.218 0.734 20.282 76.264 57.842 141.34 37.468 64.89 90.56 116.232 91.06 116.748 8.5 8.156 8.782 21.656 0.624 30.156a21.332 21.332 0 0 1-15.404 6.562z" fill="#967ADC" p-id="2307"></path><path d="M428.622 783.11a21.424 21.424 0 0 1-19.782-13.312c-0.328-0.812-15.812-37.874-43.67-61.28-23.796-19.966-60.374-32.498-72.468-35.654-11.406-2.968-18.234-14.624-15.264-26a21.304 21.304 0 0 1 26.014-15.282c2.156 0.562 53.186 14.094 89.14 44.25 36.342 30.498 55.014 75.998 55.794 77.904 4.422 10.936-0.86 23.374-11.782 27.81a21.12 21.12 0 0 1-7.982 1.564zM359.374 974.17a21.314 21.314 0 0 1-17.734-9.5c-0.406-0.594-41.764-61.748-99.154-109.936-57.734-48.438-128.45-81.188-129.154-81.5-10.704-4.938-15.406-17.592-10.484-28.31 4.922-10.688 17.594-15.376 28.296-10.468 3.092 1.406 76.686 35.53 138.762 87.592 62.186 52.188 105.374 116.186 107.186 118.874 6.546 9.812 3.922 23.062-5.86 29.624a21.274 21.274 0 0 1-11.858 3.624zM650.742 358.2c-18.562 0-44.124-2.062-68.438-10.922-44.124-16.062-81.356-53.482-82.918-55.076-8.266-8.39-8.172-21.89 0.218-30.172 8.39-8.266 21.89-8.172 30.17 0.218 0.296 0.296 32.186 32.218 67.092 44.936 34.156 12.422 74.498 7.25 74.874 7.204 11.688-1.64 22.438 6.5 24.094 18.172 1.624 11.656-6.5 22.454-18.156 24.078-0.938 0.14-11.5 1.562-26.936 1.562zM805.55 201.344c-0.468 0-0.938-0.016-1.438-0.046-3.25-0.218-80.25-5.61-156.558-33.376-76.124-27.716-142.434-74.404-145.232-76.374-9.61-6.812-11.876-20.124-5.062-29.75 6.812-9.61 20.124-11.876 29.734-5.062 0.64 0.438 64.56 45.39 135.186 71.094 70.622 25.702 144.058 30.842 144.778 30.888 11.75 0.782 20.656 10.954 19.844 22.704-0.752 11.282-10.126 19.922-21.252 19.922z" fill="#967ADC" p-id="2308"></path><path d="M429.106 783.422c-7.984 0-15.64-4.5-19.282-12.188a21.328 21.328 0 0 1 10.11-28.436c2.016-0.938 49.796-23.406 96.732-23.406 47.452 0 91.014 22.844 92.826 23.844 10.406 5.5 14.376 18.436 8.844 28.81-5.532 10.438-18.406 14.376-28.844 8.876-0.562-0.312-36.376-18.876-72.826-18.876-31.046 0-67.138 13.938-78.42 19.282a21.264 21.264 0 0 1-9.14 2.094zM669.24 974.294c-1.938 0-3.938-0.312-5.936-0.876-1.188-0.344-71.968-20.5-146.638-20.5-75.124 0-150.574 20.376-151.324 20.594-11.36 3.094-23.11-3.594-26.204-14.968-3.11-11.344 3.578-23.062 14.938-26.188 3.282-0.876 81.562-22.06 162.59-22.06 81.202-0.032 155.386 21.248 158.512 22.154 11.312 3.282 17.844 15.124 14.562 26.438-2.718 9.344-11.25 15.406-20.5 15.406z" fill="#967ADC" p-id="2309"></path><path d="M575.68 203.266c2.032 11.594-5.688 22.654-17.312 24.702-11.624 2.046-22.67-5.688-24.716-17.294-2.046-11.61 5.704-22.672 17.31-24.718 11.592-2.05 22.656 5.7 24.718 17.31zM341.342 206.968c0 11.782-9.562 21.326-21.342 21.326-11.782 0-21.328-9.544-21.328-21.326S308.218 185.64 320 185.64c11.78 0 21.342 9.548 21.342 21.328zM895.986 676.3c0 11.75-9.562 21.31-21.312 21.31-11.812 0-21.374-9.56-21.374-21.31 0-11.812 9.56-21.376 21.374-21.376 11.75 0.002 21.312 9.564 21.312 21.376zM809.488 377.622c0 11.782-9.562 21.342-21.312 21.342-11.812 0-21.344-9.56-21.344-21.342s9.532-21.328 21.344-21.328c11.75-0.002 21.312 9.546 21.312 21.328zM293.718 761.922c2.046 11.624-5.704 22.688-17.312 24.75-11.61 2.032-22.672-5.718-24.718-17.312-2.046-11.624 5.704-22.686 17.312-24.716s22.67 5.718 24.718 17.278zM618.336 843.234c2.032 11.624-5.718 22.688-17.282 24.718-11.624 2.032-22.688-5.718-24.75-17.282-2.032-11.624 5.718-22.686 17.312-24.748 11.626-2.032 22.688 5.72 24.72 17.312zM426.34 459.26c2.046 11.592-5.704 22.654-17.296 24.702-11.608 2.046-22.67-5.704-24.718-17.294-2.046-11.61 5.704-22.672 17.312-24.718 11.594-2.05 22.656 5.7 24.702 17.31zM212.75 500.976c2.046 11.594-5.702 22.656-17.296 24.704-11.61 2.046-22.672-5.704-24.718-17.296-2.046-11.61 5.704-22.672 17.312-24.718 11.594-2.048 22.656 5.702 24.702 17.31z" fill="#434A54" p-id="2310"></path><path d="M943.456 797.454c-3.624 0-7.282-0.906-10.656-2.844l-431.476-249.12c-10.204-5.888-13.688-18.936-7.796-29.138s18.936-13.704 29.14-7.812l431.476 249.104c10.218 5.904 13.686 18.936 7.782 29.154a21.36 21.36 0 0 1-18.47 10.656z" fill="#AC92EB" p-id="2311"></path><path d="M512.026 548.366a21.58 21.58 0 0 1-3.734-0.344L17.646 461.51c-11.61-2.046-19.36-13.11-17.312-24.718 2.046-11.594 13.124-19.344 24.718-17.296l490.646 86.514c11.61 2.046 19.36 13.11 17.312 24.718-1.828 10.342-10.828 17.638-20.984 17.638z" fill="#AC92EB" p-id="2312"></path><path d="M511.98 548.366a21.358 21.358 0 0 1-21-17.654c-2.032-11.594 5.704-22.656 17.312-24.704l490.63-86.514c11.624-2.046 22.686 5.704 24.748 17.296 2.032 11.61-5.718 22.672-17.312 24.718l-490.66 86.512c-1.25 0.22-2.5 0.346-3.718 0.346z" fill="#AC92EB" p-id="2313"></path><path d="M80.55 797.454a21.386 21.386 0 0 1-18.5-10.656c-5.89-10.218-2.39-23.25 7.812-29.154l431.46-249.104c10.218-5.89 23.264-2.39 29.156 7.812s2.39 23.25-7.812 29.138L91.192 794.61a21.25 21.25 0 0 1-10.642 2.844z" fill="#AC92EB" p-id="2314"></path><path d="M511.98 548.366a21.2 21.2 0 0 1-13.688-5.016c-9.032-7.56-10.218-21.03-2.64-30.044L815.926 131.642c7.562-9.032 21-10.204 30.032-2.624 9.03 7.562 10.216 21.03 2.656 30.044L528.338 540.726a21.356 21.356 0 0 1-16.358 7.64z" fill="#AC92EB" p-id="2315"></path><path d="M341.592 1016.542c-2.422 0-4.89-0.438-7.296-1.312a21.332 21.332 0 0 1-12.75-27.342l170.402-468.162c4.032-11.078 16.282-16.782 27.342-12.766 11.078 4.032 16.782 16.282 12.75 27.344L361.638 1002.48a21.32 21.32 0 0 1-20.046 14.062z" fill="#AC92EB" p-id="2316"></path><path d="M511.994 548.366c-11.78 0-21.328-9.576-21.328-21.358V28.784c0-11.782 9.546-21.326 21.328-21.326s21.328 9.544 21.328 21.326v498.224c0 11.782-9.546 21.358-21.328 21.358z" fill="#AC92EB" p-id="2317"></path><path d="M682.396 1016.542c-8.718 0-16.906-5.406-20.03-14.062l-170.418-468.176c-4.032-11.062 1.688-23.312 12.75-27.344 11.078-4.016 23.312 1.688 27.342 12.766l170.384 468.162c4.062 11.092-1.654 23.31-12.748 27.342a21.18 21.18 0 0 1-7.28 1.312z" fill="#AC92EB" p-id="2318"></path><path d="M512.01 548.366c-6.092 0-12.14-2.624-16.358-7.638L175.408 159.062c-7.578-9.016-6.406-22.482 2.624-30.044 9.032-7.578 22.484-6.406 30.062 2.624l320.242 381.662c7.578 9.016 6.39 22.484-2.624 30.044-4 3.36-8.874 5.018-13.702 5.018z" fill="#AC92EB" p-id="2319"></path></svg>