<?xml version="1.0" standalone="no"?><!DOCTYPE svg PUBLIC "-//W3C//DTD SVG 1.1//EN" "http://www.w3.org/Graphics/SVG/1.1/DTD/svg11.dtd"><svg t="1648990105490" class="icon" viewBox="0 0 1024 1024" version="1.1" xmlns="http://www.w3.org/2000/svg" p-id="1280" width="128" height="128" xmlns:xlink="http://www.w3.org/1999/xlink"><defs><style type="text/css">@font-face { font-family: feedback-iconfont; src: url("//at.alicdn.com/t/font_1031158_u69w8yhxdu.woff2?t=1630033759944") format("woff2"), url("//at.alicdn.com/t/font_1031158_u69w8yhxdu.woff?t=1630033759944") format("woff"), url("//at.alicdn.com/t/font_1031158_u69w8yhxdu.ttf?t=1630033759944") format("truetype"); }
</style></defs><path d="M77.575758 370.998303c0-108.140606 0-162.226424 21.038545-203.527758a193.070545 193.070545 0 0 1 84.402424-84.371393C224.256 62.060606 278.341818 62.060606 386.482424 62.060606h250.973091c108.140606 0 162.226424 0 203.527758 21.038546a193.070545 193.070545 0 0 1 84.371394 84.402424C946.424242 208.740848 946.424242 262.826667 946.424242 370.967273v250.973091c0 108.140606 0 162.226424-21.038545 203.527757a193.070545 193.070545 0 0 1-84.402424 84.371394C799.744 930.909091 745.658182 930.909091 637.517576 930.909091h-250.973091c-108.140606 0-162.226424 0-203.527758-21.038546a193.070545 193.070545 0 0 1-84.371394-84.402424C77.575758 784.228848 77.575758 730.14303 77.575758 622.002424v-250.973091z" fill="#FFFFFF" p-id="1281"></path><path d="M263.757576 668.051394v123.93503c0 25.258667 20.697212 45.738667 46.173091 45.738667h123.128242v-169.673697H263.757576z" fill="#188038" p-id="1282"></path><path d="M591.065212 837.756121h123.004121c25.475879 0 46.173091-20.48 46.173091-45.738666v-123.966061h-169.177212v169.704727z" fill="#1967D2" p-id="1283"></path><path d="M591.034182 668.051394h-157.975273v169.704727h157.975273v-169.735757z" fill="#34A853" p-id="1284"></path><path d="M309.930667 155.151515C284.454788 155.151515 263.757576 175.631515 263.757576 200.890182V668.082424h169.301333v-341.953939h157.944243V155.151515H309.961697z" fill="#FBBC05" p-id="1285"></path><path d="M760.242424 326.128485h-169.177212v341.922909H760.242424v-341.953939z" fill="#4285F4" p-id="1286"></path><path d="M591.065212 326.128485h169.115152L591.096242 155.151515v170.97697z" fill="#EA4335" p-id="1287"></path></svg>